<?xml version="1.0" encoding="UTF-8"?>
<svg width="70px" height="70px" viewBox="0 0 70 70" version="1.1" xmlns="http://www.w3.org/2000/svg" xmlns:xlink="http://www.w3.org/1999/xlink">
    <!-- Generator: Sketch 57.1 (83088) - https://sketch.com -->
    <title>LOGO-11</title>
    <desc>Created with Sketch.</desc>
    <g id="LOGOs" stroke="none" stroke-width="1" fill="none" fill-rule="evenodd">
        <rect id="矩形" fill="#000000" x="0" y="0" width="70" height="70"></rect>
        <g id="HOTPOOR-邮箱回复助手-2" transform="translate(12.000000, 14.000000)" fill="#FFFFFF">
            <g id="HOTPOOR-邮箱回复助手">
                <path d="M45.4635328,-3.55271368e-15 L39.5126877,15.6628686 C42.0406867,18.3250123 43.5357143,21.6199219 43.5357143,25.1871938 C43.5357143,34.033612 34.3415618,41.2050509 23,41.2050509 C11.6584382,41.2050509 2.46428571,34.033612 2.46428571,25.1871938 C2.46428571,21.8028824 3.80989011,18.6637116 6.1065535,16.0774267 L-2.48689958e-14,-3.55271368e-15 L14.617016,10.8285957 C16.892445,9.70889328 19.8138188,9.03571429 23,9.03571429 C26.0357259,9.03571429 28.831063,9.64681773 31.0560997,10.6731396 L45.4635328,-3.55271368e-15 Z M11.2662732,20.3584163 L11.3365085,20.6777725 C12.2552393,24.804205 14.0791808,28.2876261 16.4452434,30.5712985 C16.5751767,28.0245023 17.4729962,25.7689299 18.8222988,24.239238 C15.5277031,23.584914 12.8156223,22.1760215 11.2662732,20.3584163 Z M34.732111,20.3603383 C33.1823971,22.1770434 30.4710662,23.5851603 27.1782506,24.2402469 C28.5270038,25.7689299 29.4248233,28.0245023 29.5550471,30.5713004 C31.9812188,28.229362 33.8375713,24.6255171 34.732111,20.3603383 Z" id="HOTPOOR-基础"></path>
            </g>
        </g>
    </g>
</svg>