<?xml version="1.0" standalone="no"?><!DOCTYPE svg PUBLIC "-//W3C//DTD SVG 1.1//EN" "http://www.w3.org/Graphics/SVG/1.1/DTD/svg11.dtd"><svg t="1666265875606" class="icon" viewBox="0 0 1024 1024" version="1.1" xmlns="http://www.w3.org/2000/svg" p-id="1850" xmlns:xlink="http://www.w3.org/1999/xlink" width="50" height="50"><path d="M704 352h-64V224a32 32 0 0 0-32-32H160a32 32 0 0 0-32 32v288a32 32 0 0 0 32 32h96v64H128a64 64 0 0 1-64-64V192a64 64 0 0 1 64-64h512a64 64 0 0 1 64 64v160z m-320 64h512a64 64 0 0 1 64 64v352a64 64 0 0 1-64 64H384a64 64 0 0 1-64-64V480a64 64 0 0 1 64-64z m32 64a32 32 0 0 0-32 32v288a32 32 0 0 0 32 32h448a32 32 0 0 0 32-32v-288a32 32 0 0 0-32-32H416z" fill="#666666" p-id="1851"></path></svg>